<?xml version="1.0" standalone="no"?>
<!DOCTYPE svg PUBLIC "-//W3C//DTD SVG 20010904//EN"
 "http://www.w3.org/TR/2001/REC-SVG-20010904/DTD/svg10.dtd">
<svg version="1.0" xmlns="http://www.w3.org/2000/svg"
 width="5rem" viewBox="0 0 643.000000 299.000000"
 preserveAspectRatio="xMidYMid meet">

<g transform="translate(0.000000,299.000000) scale(0.100000,-0.100000)"
fill="#000000" stroke="none">
<path d="M5040 2899 c-75 -30 -150 -107 -179 -183 -30 -80 -12 -126 50 -126
34 0 40 25 9 35 -11 4 -20 15 -20 26 0 26 35 94 73 142 30 38 111 87 145 87
29 0 62 -43 70 -91 9 -51 32 -62 65 -31 50 47 108 29 112 -33 3 -54 16 -60 60
-31 21 14 46 26 56 26 22 0 49 -37 49 -67 0 -26 33 -39 64 -25 11 6 29 13 39
16 28 9 15 31 -21 34 -19 2 -32 9 -32 17 0 28 -51 55 -105 55 -44 0 -53 3 -64
24 -17 32 -52 46 -111 46 -38 0 -50 4 -54 18 -4 10 -19 30 -34 45 -39 38 -101
43 -172 16z"/>
<path d="M1654 2895 c-9 -24 5 -35 46 -35 43 0 58 13 40 35 -16 20 -79 20 -86
0z"/>
<path d="M3358 2875 c-45 -23 -50 -23 -83 -9 -33 13 -39 13 -79 -4 -46 -21
-80 -73 -74 -115 6 -42 34 -31 56 22 23 55 44 67 100 55 47 -9 56 -8 119 23
l53 25 32 -27 c27 -23 38 -26 67 -20 20 4 48 9 63 12 22 4 29 0 42 -25 17 -33
57 -53 101 -49 25 2 32 -3 47 -33 24 -50 35 -60 68 -60 30 0 49 -28 34 -52 -4
-6 -8 -34 -9 -62 -1 -28 -3 -57 -6 -65 -6 -20 22 -25 45 -8 18 13 26 65 27
170 0 23 -26 43 -63 51 -19 4 -32 16 -42 40 -13 31 -61 69 -83 65 -26 -4 -63
3 -63 12 0 18 -42 48 -77 55 -17 3 -48 1 -67 -6 -31 -10 -39 -9 -65 9 -38 27
-85 26 -143 -4z"/>
<path d="M1730 2833 c-148 -18 -228 -53 -318 -137 -76 -72 -110 -134 -128
-239 -17 -97 -6 -192 33 -281 17 -39 26 -77 25 -105 -1 -38 -7 -50 -48 -89
-44 -44 -47 -45 -60 -27 -8 10 -14 24 -14 31 0 41 -119 -6 -149 -58 -13 -22
-23 -28 -52 -28 -45 0 -181 -25 -269 -50 -151 -41 -398 -168 -525 -270 -79
-64 -119 -106 -111 -119 10 -15 41 -14 55 3 17 20 204 157 254 185 211 121
396 189 565 206 l62 6 -5 -43 c-4 -24 -10 -70 -15 -103 -28 -179 -30 -208 -19
-221 6 -8 19 -14 27 -14 28 0 232 125 232 142 0 26 -39 16 -116 -32 -47 -28
-88 -49 -92 -46 -3 4 0 39 7 79 7 40 17 108 21 152 14 128 17 138 60 162 l38
22 12 -32 c7 -18 45 -104 84 -192 38 -88 69 -171 68 -184 -1 -13 -11 -38 -22
-56 -26 -42 -25 -57 3 -82 42 -39 151 -59 181 -34 8 7 34 41 58 77 24 35 47
64 51 64 5 0 23 -11 40 -24 36 -27 111 -66 127 -66 24 0 -5 77 -53 142 -36 49
-62 31 -32 -22 23 -39 18 -42 -26 -15 -63 40 -85 32 -142 -50 -26 -38 -51 -73
-56 -78 -10 -10 -111 23 -111 38 0 7 9 20 19 29 46 41 33 94 -75 308 l-48 98
44 45 c35 36 47 43 55 32 12 -15 82 -57 96 -57 19 0 8 30 -17 46 -33 22 -54
64 -54 108 0 39 35 88 81 112 16 8 29 19 29 24 0 19 -56 10 -92 -15 l-36 -24
-11 27 c-12 29 -42 164 -37 169 1 2 68 6 147 9 l145 7 14 -32 c12 -30 11 -33
-23 -64 -38 -35 -73 -112 -56 -122 12 -8 39 13 39 30 0 7 25 37 55 67 53 51
67 80 45 93 -27 17 2 23 138 29 81 3 191 9 245 12 l97 7 0 -26 c0 -44 18 -77
41 -77 20 0 21 4 17 49 l-5 49 51 6 c28 3 97 6 153 6 114 0 156 11 151 38 -3
15 -16 17 -133 14 -72 -1 -153 -5 -181 -8 l-51 -5 -23 53 c-76 178 -134 259
-215 297 -85 40 -183 61 -245 54z"/>
<path d="M2999 2723 c-19 -5 -39 -44 -39 -77 0 -15 -9 -27 -25 -34 -31 -14
-43 -57 -24 -91 23 -41 39 -38 39 9 0 37 3 43 30 53 25 9 29 17 32 52 3 34 7
40 28 43 36 5 44 17 25 36 -16 16 -33 18 -66 9z"/>
<path d="M5683 2610 c-22 -9 -30 -30 -17 -43 3 -3 19 -1 35 5 22 7 33 7 44 -2
22 -18 19 -42 -10 -85 -30 -43 -21 -65 26 -65 40 0 52 -27 38 -85 -13 -53 -39
-73 -63 -49 -9 8 -16 19 -16 24 0 20 -41 20 -79 0 -56 -28 -65 -26 -58 14 9
58 -11 62 -88 21 -37 -19 -78 -35 -92 -35 -23 0 -25 3 -20 33 3 17 8 40 12 49
12 31 -27 40 -77 18 -64 -29 -78 -27 -78 14 0 48 -33 86 -76 86 -64 0 -100
-64 -68 -119 10 -17 21 -31 24 -31 4 0 14 -6 24 -13 24 -18 11 -44 -58 -115
l-51 -53 0 -123 c0 -100 3 -127 18 -149 10 -15 24 -27 32 -27 13 0 14 10 8 58
-5 31 -8 94 -8 139 l0 82 56 58 c31 32 64 72 73 89 9 20 25 34 43 37 15 4 38
9 51 13 19 6 22 3 22 -23 0 -18 9 -38 24 -52 21 -20 32 -22 68 -17 24 4 55 13
70 20 24 13 27 12 47 -15 25 -33 53 -37 108 -14 34 14 38 14 58 -5 12 -11 27
-20 33 -20 15 0 16 -16 2 -25 -5 -3 -10 -15 -10 -26 0 -33 41 -19 68 22 18 27
35 40 66 49 53 15 95 45 81 59 -7 7 -22 8 -45 1 -19 -6 -37 -10 -40 -10 -3 0
-3 22 -2 50 4 44 1 53 -26 80 -28 28 -30 33 -25 89 5 54 4 60 -19 75 -32 21
-78 28 -105 16z m-497 -154 c9 -38 1 -61 -23 -64 -29 -4 -40 31 -19 63 21 32
34 32 42 1z"/>
<path d="M4757 2486 c-75 -27 -137 -109 -137 -181 0 -87 45 -133 118 -122 38
7 38 6 34 -22 -3 -22 2 -33 23 -50 15 -11 38 -21 51 -21 20 0 24 -5 24 -29 0
-16 -7 -35 -17 -42 -9 -8 -22 -28 -30 -46 -39 -95 28 -203 127 -203 46 0 45
19 -3 39 -58 25 -77 53 -77 116 0 46 3 52 30 68 25 15 30 25 30 56 0 45 -29
81 -66 81 -30 0 -40 21 -24 50 9 18 9 28 -1 46 -14 28 -52 32 -107 12 -30 -11
-35 -11 -48 7 -22 30 -17 70 16 123 39 63 102 97 165 88 49 -8 70 8 40 31 -24
17 -99 16 -148 -1z"/>
<path d="M3709 2485 c-3 -3 -158 -9 -345 -15 -186 -5 -351 -13 -366 -16 -19
-4 -28 -13 -28 -26 0 -19 5 -20 63 -14 34 3 204 8 377 12 388 7 435 12 435 39
0 18 -8 20 -65 23 -36 2 -68 0 -71 -3z"/>
<path d="M3879 2403 c-6 -17 -9 -55 -5 -95 l6 -66 -39 -7 c-22 -3 -47 -13 -58
-21 -28 -21 1 -36 58 -29 l46 5 17 -89 c22 -122 22 -126 -15 -137 -27 -8 -34
-17 -49 -64 -17 -55 -71 -171 -93 -201 -7 -9 -27 -24 -45 -33 -28 -14 -42 -15
-89 -6 -89 16 -92 15 -113 -36 -24 -56 -25 -83 -3 -91 21 -8 53 30 53 63 0 24
0 24 85 18 61 -5 89 -3 99 5 12 11 32 4 108 -34 199 -101 322 -196 468 -362
52 -59 88 -81 97 -57 10 29 -133 198 -233 274 l-55 43 38 39 c20 21 41 38 47
38 5 0 17 6 25 14 16 13 134 56 155 56 6 0 26 -31 45 -70 47 -95 114 -180 188
-239 98 -78 226 -160 294 -187 73 -30 174 -38 174 -14 0 10 -21 20 -65 31 -87
22 -173 62 -235 107 -27 21 -67 48 -87 61 -93 56 -204 215 -249 354 -29 92
-27 104 24 117 76 21 89 31 105 87 21 75 56 104 134 112 54 5 63 9 63 26 0 17
-8 20 -57 23 -45 2 -67 -2 -106 -22 -56 -29 -77 -55 -89 -116 -8 -39 -12 -44
-51 -55 -79 -24 -92 -38 -92 -103 l0 -57 -76 -24 c-76 -25 -173 -81 -215 -125
l-23 -24 -31 23 c-36 28 -182 101 -219 111 -15 3 -25 9 -24 13 69 141 91 190
95 216 4 28 11 34 52 47 44 14 46 16 43 49 -2 19 -12 81 -24 139 -11 58 -26
152 -32 209 -12 109 -27 136 -47 84z"/>
<path d="M3545 2390 c-4 -6 -9 -35 -12 -65 -5 -45 -13 -63 -43 -98 -65 -74
-86 -132 -55 -157 19 -16 45 3 45 32 0 28 17 57 66 110 42 44 44 50 44 106 0
66 -25 105 -45 72z"/>
<path d="M2916 2374 c-24 -23 -21 -155 4 -235 19 -61 31 -80 109 -181 l33 -43
-8 -100 c-15 -196 -17 -190 75 -395 45 -102 94 -202 107 -223 14 -22 24 -41
21 -43 -2 -2 -52 12 -111 31 -59 19 -116 35 -127 35 -26 0 -24 7 16 69 19 29
35 58 35 64 0 25 -42 36 -155 43 -82 5 -118 11 -122 20 -8 22 49 94 175 223
44 46 59 68 52 75 -8 8 -22 5 -48 -11 -21 -12 -78 -31 -126 -42 -49 -12 -102
-27 -120 -35 -17 -7 -75 -32 -128 -56 l-97 -42 -48 39 c-27 22 -95 71 -153
108 -58 38 -116 76 -130 85 -14 9 -39 22 -57 29 -24 10 -32 19 -30 35 1 14 -4
22 -18 24 -15 2 -27 -8 -43 -36 -28 -51 -95 -120 -130 -134 -74 -29 -91 -28
-158 8 -72 40 -79 39 -137 -25 -22 -25 -34 -47 -31 -56 9 -22 17 -19 67 19
l45 35 47 -30 c29 -19 59 -29 83 -29 59 0 152 50 203 109 l45 51 49 -21 c72
-32 357 -231 345 -241 -3 -2 -35 -25 -72 -51 -76 -54 -228 -217 -228 -246 0
-42 30 -30 87 37 113 130 205 203 348 275 92 46 284 121 291 114 2 -2 -21 -35
-52 -73 -79 -99 -110 -163 -85 -178 5 -3 61 -10 126 -16 65 -6 121 -13 126
-16 5 -3 -5 -32 -23 -65 l-33 -60 24 -20 c13 -10 32 -19 42 -19 11 0 90 -23
177 -51 86 -28 163 -52 169 -54 18 -6 54 45 108 150 25 50 64 119 86 155 81
129 98 180 61 180 -25 0 -107 -126 -209 -320 -25 -47 -48 -88 -52 -93 -13 -13
-66 75 -125 208 -32 72 -68 153 -81 180 -47 100 -48 123 -18 257 21 94 12 128
-53 201 -74 83 -114 193 -114 317 0 73 -9 90 -34 64z"/>
<path d="M1992 2212 c-13 -4 -23 -10 -23 -14 1 -5 1 -13 1 -19 0 -7 15 -10 40
-7 45 4 43 7 70 -97 11 -38 22 -80 26 -92 5 -18 0 -24 -29 -36 -42 -18 -53
-33 -31 -45 19 -11 78 0 100 19 19 15 15 53 -16 148 -11 35 -20 74 -20 87 0
21 5 24 41 24 33 0 40 3 37 18 -3 14 -16 17 -88 19 -47 1 -95 -2 -108 -5z"/>
<path d="M3271 2136 c-58 -41 -77 -124 -45 -192 18 -39 62 -74 91 -74 35 0 33
12 -9 49 -37 33 -41 43 -46 92 -4 55 -4 56 37 91 23 19 41 37 41 40 0 17 -43
13 -69 -6z"/>
<path d="M5585 2105 c-5 -1 -36 -8 -67 -15 -37 -7 -58 -16 -58 -25 0 -23 17
-27 77 -15 47 8 60 8 68 -3 6 -8 21 -58 34 -111 25 -100 25 -106 -13 -119 -5
-2 -6 -9 -2 -15 11 -18 85 -15 93 4 3 9 -6 62 -22 117 -15 56 -29 110 -32 120
-4 14 3 17 41 17 50 0 68 16 41 37 -17 11 -130 18 -160 8z"/>
<path d="M2164 2086 c-10 -26 0 -51 21 -51 16 0 20 7 20 30 0 33 -30 49 -41
21z"/>
<path d="M3797 2093 c-12 -11 -8 -40 7 -52 12 -10 17 -9 24 6 16 28 -11 67
-31 46z"/>
<path d="M1945 2060 c-8 -25 1 -40 25 -40 20 0 32 22 24 45 -9 22 -42 18 -49
-5z"/>
<path d="M5522 1958 c2 -21 8 -33 18 -33 10 0 16 12 18 33 3 27 0 32 -18 32
-18 0 -21 -5 -18 -32z"/>
<path d="M5717 1984 c-12 -12 -8 -41 7 -53 17 -14 39 9 34 36 -3 18 -29 29
-41 17z"/>
<path d="M4710 1840 c-15 -27 18 -107 94 -232 143 -236 297 -394 377 -386 28
2 40 13 76 66 47 70 55 102 23 102 -12 0 -31 -17 -50 -42 -64 -93 -50 -88
-114 -39 -54 42 -175 183 -210 246 -10 17 -32 51 -50 77 -18 26 -50 85 -72
132 -42 90 -58 107 -74 76z"/>
<path d="M3665 1790 c-11 -18 15 -40 46 -40 27 0 41 22 22 33 -22 12 -63 16
-68 7z"/>
<path d="M5066 1758 c-8 -13 -18 -41 -21 -63 -6 -33 -3 -44 13 -59 12 -10 25
-16 30 -12 12 7 14 143 3 151 -6 3 -17 -5 -25 -17z"/>
<path d="M1803 1745 c-7 -19 -5 -20 27 -28 31 -8 55 6 47 27 -8 21 -66 22 -74
1z"/>
<path d="M5640 1735 c0 -18 50 -45 85 -45 37 0 32 28 -10 46 -44 18 -75 18
-75 -1z"/>
<path d="M5497 1710 c-80 -51 -41 -73 51 -29 29 14 42 27 40 38 -5 27 -40 23
-91 -9z"/>
<path d="M5140 1634 c-16 -41 -9 -115 13 -128 26 -16 33 2 27 80 -5 73 -23 94
-40 48z"/>
<path d="M5750 1650 c-23 -14 -2 -40 59 -71 69 -36 195 -133 216 -167 10 -15
28 -38 40 -52 25 -28 37 -50 95 -172 47 -99 76 -118 68 -45 -3 23 -14 62 -25
87 -11 25 -25 58 -32 73 -34 85 -188 234 -325 316 -77 45 -75 45 -96 31z"/>
<path d="M5670 1634 c0 -36 33 -125 49 -134 35 -18 41 17 14 77 -29 63 -63 94
-63 57z"/>
<path d="M6035 1620 c-3 -5 -3 -15 0 -21 4 -6 -3 -21 -16 -35 -12 -13 -18 -24
-12 -24 5 0 18 9 27 19 10 11 32 21 50 23 17 2 30 8 28 13 -2 6 -18 9 -37 7
-40 -3 -45 4 -12 18 l22 9 -22 0 c-12 1 -25 -3 -28 -9z"/>
<path d="M3710 1581 c0 -5 16 -28 36 -52 45 -54 97 -129 92 -134 -1 -1 -43 -8
-92 -14 -104 -14 -161 -34 -150 -53 4 -7 18 -28 32 -46 13 -19 20 -37 16 -42
-5 -5 -55 -32 -112 -60 -57 -29 -106 -59 -109 -67 -7 -18 14 -33 36 -26 31 10
281 134 281 140 0 3 -14 23 -31 45 -17 21 -29 42 -25 45 3 3 40 12 83 19 43 7
93 16 111 19 18 3 32 12 32 20 0 20 -87 142 -129 181 -34 32 -71 45 -71 25z"/>
<path d="M1254 1555 c-4 -10 -1 -21 7 -26 20 -12 34 -5 34 17 0 24 -33 31 -41
9z"/>
<path d="M6050 1545 c-10 -12 -9 -16 5 -21 9 -4 22 -1 28 6 10 10 8 12 -7 6
-14 -5 -17 -2 -12 9 7 19 2 19 -14 0z"/>
<path d="M5230 1525 c0 -36 21 -75 41 -75 27 0 30 13 12 59 -19 48 -53 58 -53
16z"/>
<path d="M6128 1494 c-16 -8 -28 -17 -28 -20 0 -2 9 0 21 7 19 10 20 8 14 -10
-4 -15 -2 -21 8 -21 18 0 67 39 50 40 -6 0 -15 -4 -18 -10 -11 -18 -23 -11
-18 10 6 24 6 24 -29 4z"/>
<path d="M5345 1470 c-18 -28 46 -140 80 -140 25 0 23 14 -10 73 -34 62 -59
85 -70 67z"/>
<path d="M5615 1470 c-7 -11 30 -79 49 -92 44 -31 47 19 5 67 -32 37 -44 42
-54 25z"/>
<path d="M6175 1436 c-21 -9 -26 -14 -16 -20 11 -7 11 -10 0 -17 -7 -4 -11
-10 -8 -13 8 -9 80 44 74 55 -8 11 -13 11 -50 -5z"/>
<path d="M5504 1389 c3 -18 13 -44 22 -57 17 -25 47 -26 52 -1 4 21 -40 83
-62 87 -16 4 -18 0 -12 -29z"/>
<path d="M6198 1379 c-25 -14 -11 -39 23 -39 29 0 38 13 19 25 -5 3 -10 1 -10
-4 0 -6 -7 -11 -15 -11 -8 0 -15 4 -15 9 0 13 30 22 53 15 13 -4 17 -2 13 5
-9 14 -45 14 -68 0z"/>
<path d="M6234 1300 c0 -24 -2 -23 31 -8 33 15 32 28 -3 28 -21 0 -28 -5 -28
-20z"/>
<path d="M1474 1296 c-10 -26 4 -46 31 -46 23 0 26 4 23 28 -3 31 -44 45 -54
18z"/>
<path d="M5301 1220 c-75 -86 -86 -110 -48 -110 33 0 157 137 157 173 0 38
-41 14 -109 -63z"/>
<path d="M6326 1276 c7 -19 -4 -38 -18 -30 -6 4 -5 10 3 16 9 6 1 8 -25 6 -22
-2 -41 -8 -43 -14 -4 -12 72 -28 88 -19 12 8 12 42 -1 50 -5 3 -7 0 -4 -9z"/>
<path d="M6285 1201 c19 -8 19 -8 0 -19 -26 -15 -3 -15 30 0 36 16 31 28 -12
27 -29 0 -33 -2 -18 -8z"/>
<path d="M3715 955 c-11 -8 -27 -15 -35 -15 -8 0 -31 -8 -50 -18 -43 -23 -55
-63 -34 -105 16 -29 15 -30 -20 -65 -38 -39 -45 -38 -105 7 l-24 18 24 32 c18
25 20 34 10 44 -10 9 -14 9 -21 -4 -5 -9 -24 -22 -41 -29 -28 -12 -33 -12 -45
5 -18 24 -18 46 0 70 11 15 21 17 60 12 50 -7 59 3 24 27 -34 24 -74 20 -108
-11 -58 -53 -43 -125 29 -139 21 -5 37 -21 66 -70 43 -75 46 -59 -47 -246 -54
-109 -96 -237 -113 -345 -11 -70 12 -52 57 45 37 80 85 177 155 311 16 29 33
53 38 53 5 0 21 -21 35 -48 69 -131 122 -237 160 -316 39 -85 60 -109 60 -69
0 10 -13 70 -29 132 -20 81 -49 157 -100 261 -39 80 -71 151 -71 156 0 6 14
33 31 60 26 42 37 51 68 56 44 7 81 40 63 58 -8 8 -21 6 -48 -7 -35 -17 -37
-16 -57 3 -43 43 6 95 68 72 37 -14 55 -12 55 5 0 8 -5 15 -10 15 -6 0 -9 12
-8 26 4 32 -11 40 -37 19z"/>
<path d="M4618 753 c-12 -3 -18 -20 -23 -71 -8 -80 -37 -185 -65 -229 -19 -32
-43 -41 -68 -25 -26 17 -54 116 -59 215 -6 94 -7 97 -30 97 -36 0 -80 -26 -87
-52 -19 -72 6 -253 43 -315 12 -18 41 -41 74 -58 52 -25 59 -26 109 -15 87 18
118 55 168 199 37 109 52 237 29 252 -14 9 -61 10 -91 2z"/>
<path d="M4075 740 c-200 -42 -314 -175 -264 -307 36 -96 193 -157 316 -124
56 15 73 34 73 82 l0 39 -79 -2 c-90 -1 -120 12 -146 63 -15 28 -15 33 -1 55
24 36 61 56 135 74 l66 16 9 47 c5 26 7 49 4 52 -11 11 -73 14 -113 5z"/>
<path d="M4952 724 c-74 -7 -140 -18 -147 -24 -19 -16 -28 -76 -15 -101 10
-18 19 -20 71 -17 l59 3 0 -130 c0 -72 4 -136 9 -144 6 -9 32 -16 70 -19 l61
-4 0 156 0 156 33 1 c78 2 88 12 85 84 l-3 50 -45 1 c-25 1 -105 -4 -178 -12z"/>
<path d="M1550 693 c-88 -15 -140 -41 -187 -92 -54 -57 -66 -140 -29 -196 39
-60 186 -115 305 -115 65 0 81 12 81 64 0 34 -23 54 -73 61 -56 9 -151 56
-155 77 -4 23 66 62 150 84 70 19 88 37 88 89 0 25 -5 27 -72 39 -13 2 -61 -3
-108 -11z"/>
<path d="M1927 701 c-44 -9 -62 -25 -70 -61 -11 -47 2 -54 86 -42 42 7 82 10
89 8 7 -3 25 -7 41 -10 15 -4 27 -13 27 -20 0 -25 -70 -73 -154 -106 -44 -18
-85 -35 -89 -39 -16 -15 7 -42 53 -66 27 -13 78 -47 115 -75 36 -27 70 -50 76
-50 22 0 109 51 109 65 0 7 -29 33 -65 56 -36 23 -65 43 -65 45 0 2 20 15 44
29 24 14 63 46 85 70 52 56 55 94 11 134 -51 46 -207 79 -293 62z"/>
<path d="M2818 693 c-15 -9 -29 -26 -32 -38 -11 -42 42 -305 68 -341 13 -17
15 -17 40 -1 23 16 69 71 97 117 8 13 10 13 19 0 6 -8 18 -36 27 -62 18 -49
48 -72 75 -57 22 12 76 99 100 161 54 139 77 213 69 221 -5 5 -26 11 -47 14
-52 7 -66 -10 -108 -128 l-34 -94 -25 58 c-15 32 -32 57 -41 57 -8 0 -29 -18
-46 -40 -37 -46 -50 -50 -50 -14 0 14 -7 56 -16 95 -15 64 -17 69 -42 69 -15
0 -39 -8 -54 -17z"/>
<path d="M2550 693 c-25 -1 -73 -5 -107 -9 l-63 -6 0 -61 c0 -77 18 -295 26
-321 6 -17 14 -18 117 -12 61 4 116 11 123 17 16 13 30 97 18 109 -6 6 -37 5
-77 -2 -37 -6 -70 -8 -73 -5 -4 3 -4 18 0 32 5 20 12 25 39 25 48 0 61 12 50
46 -8 25 -15 29 -51 32 -24 2 -42 8 -42 15 1 29 20 39 86 44 89 7 104 15 104
57 0 47 -8 49 -150 39z"/>
</g>
</svg>
